<svg width="20" height="20" viewBox="0 0 20 20" fill="none" xmlns="http://www.w3.org/2000/svg">
<path fill-rule="evenodd" clip-rule="evenodd" d="M5.48871 0H14.4007C17.4274 0 19.8898 2.46235 19.8896 5.48882V14.4008C19.8896 17.4273 17.4274 19.8896 14.4007 19.8896H5.48871C2.46224 19.8896 0 17.4274 0 14.4008V5.48882C0 2.46235 2.46224 0 5.48871 0ZM14.4017 18.1259C16.4553 18.1259 18.126 16.4553 18.126 14.4017H18.1259V5.48974C18.1259 3.43633 16.4552 1.76562 14.4016 1.76562H5.48962C3.43621 1.76562 1.76562 3.43633 1.76562 5.48974V14.4017C1.76562 16.4553 3.43621 18.126 5.48962 18.1259H14.4017ZM15.2863 3.32422C14.9463 3.32422 14.6123 3.46187 14.3722 3.70304C14.1309 3.94304 13.9922 4.27716 13.9922 4.61834C13.9922 4.95845 14.131 5.29245 14.3722 5.53363C14.6122 5.77363 14.9463 5.91245 15.2863 5.91245C15.6275 5.91245 15.9604 5.77363 16.2016 5.53363C16.4428 5.29245 16.5804 4.95834 16.5804 4.61834C16.5804 4.27716 16.4428 3.94304 16.2016 3.70304C15.9616 3.46187 15.6275 3.32422 15.2863 3.32422ZM9.94537 4.82031C7.11937 4.82031 4.82031 7.11937 4.82031 9.94537C4.82031 12.7713 7.11937 15.0702 9.94537 15.0702C12.7714 15.0702 15.0704 12.7713 15.0704 9.94537C15.0704 7.11937 12.7714 4.82031 9.94537 4.82031ZM9.94629 13.3064C8.09347 13.3064 6.58594 11.7991 6.58594 9.94629C6.58594 8.09335 8.09335 6.58594 9.94629 6.58594C11.7992 6.58594 13.3066 8.09335 13.3066 9.94629C13.3066 11.7991 11.7991 13.3064 9.94629 13.3064Z" fill="white"/>
</svg>
