<svg width="20" height="20" viewBox="0 0 20 20" fill="none" xmlns="http://www.w3.org/2000/svg">
<path d="M19.4102 6.64013C19.4102 6.64013 19.4102 6.64013 19.4102 6.59013C18.7056 4.66635 17.4271 3.00541 15.7477 1.83199C14.0683 0.658569 12.0689 0.0292969 10.0202 0.0292969C7.97145 0.0292969 5.97213 0.658569 4.29271 1.83199C2.61328 3.00541 1.3348 4.66635 0.630195 6.59013C0.630195 6.59013 0.630195 6.59013 0.630195 6.64013C-0.15668 8.81102 -0.15668 11.1892 0.630195 13.3601C0.630195 13.3601 0.630195 13.3601 0.630195 13.4101C1.3348 15.3339 2.61328 16.9948 4.29271 18.1683C5.97213 19.3417 7.97145 19.971 10.0202 19.971C12.0689 19.971 14.0683 19.3417 15.7477 18.1683C17.4271 16.9948 18.7056 15.3339 19.4102 13.4101C19.4102 13.4101 19.4102 13.4101 19.4102 13.3601C20.1971 11.1892 20.1971 8.81102 19.4102 6.64013ZM2.2602 12.0001C1.91342 10.6893 1.91342 9.31091 2.2602 8.00013H4.1202C3.96023 9.32866 3.96023 10.6716 4.1202 12.0001H2.2602ZM3.0802 14.0001H4.4802C4.71491 14.892 5.05041 15.7542 5.4802 16.5701C4.49949 15.9021 3.67969 15.0242 3.0802 14.0001ZM4.4802 6.00013H3.0802C3.67107 4.97921 4.48039 4.10159 5.4502 3.43013C5.03075 4.24737 4.70534 5.10954 4.4802 6.00013ZM9.0002 17.7001C7.77196 16.7988 6.90934 15.4854 6.5702 14.0001H9.0002V17.7001ZM9.0002 12.0001H6.1402C5.95359 10.6733 5.95359 9.32693 6.1402 8.00013H9.0002V12.0001ZM9.0002 6.00013H6.5702C6.90934 4.51489 7.77196 3.20144 9.0002 2.30013V6.00013ZM16.9202 6.00013H15.5202C15.2855 5.10828 14.95 4.24606 14.5202 3.43013C15.5009 4.0982 16.3207 4.97607 16.9202 6.00013ZM11.0002 2.30013C12.2284 3.20144 13.091 4.51489 13.4302 6.00013H11.0002V2.30013ZM11.0002 17.7001V14.0001H13.4302C13.091 15.4854 12.2284 16.7988 11.0002 17.7001ZM13.8602 12.0001H11.0002V8.00013H13.8602C14.0468 9.32693 14.0468 10.6733 13.8602 12.0001ZM14.5502 16.5701C14.98 15.7542 15.3155 14.892 15.5502 14.0001H16.9502C16.3507 15.0242 15.5309 15.9021 14.5502 16.5701ZM17.7402 12.0001H15.8802C15.9615 11.3366 16.0016 10.6686 16.0002 10.0001C16.0013 9.33163 15.9612 8.6637 15.8802 8.00013H17.7402C18.087 9.31091 18.087 10.6893 17.7402 12.0001Z" fill="white"/>
</svg>
