<svg xmlns="http://www.w3.org/2000/svg" xml:space="preserve" width="4.68863in" height="1.1682in" version="1.1" style="shape-rendering:geometricPrecision; text-rendering:geometricPrecision; image-rendering:optimizeQuality; fill-rule:evenodd; clip-rule:evenodd;" viewBox="0 0 4689 1168" xmlns:xlink="http://www.w3.org/1999/xlink">
<g id="Слой_x0020_1">
<metadata id="CorelCorpID_0Corel-Layer"></metadata>
<g id="_2589337910288">
    <path fill="#ffffff" class="fil0" d="M1345 488c7,19 28,82 32,100 4,13 -1,18 -15,18l-13 0c-3,0 -5,1 -5,4l0 11c0,3 2,5 4,5 12,0 30,-2 72,-2 42,0 52,2 61,2 4,0 6,-1 6,-4l0 -12c0,-2 -1,-4 -5,-4l-16 0c-13,0 -26,-6 -35,-22 -7,-14 -40,-105 -52,-144 -10,-31 -49,-141 -59,-172 -2,-5 -3,-8 -6,-8 -2,0 -4,2 -6,4 -6,7 -28,22 -43,25 -3,1 -4,3 -4,4 0,2 2,5 3,6 4,6 1,12 0,17 -5,13 -46,119 -50,129 -14,40 -52,131 -55,139 -7,15 -14,22 -30,22l-18 0c-2,0 -4,1 -4,4l0 12c0,3 1,4 4,4 7,0 18,-2 56,-2 30,0 50,2 58,2 2,0 4,-1 4,-5l0 -11c0,-3 -2,-4 -5,-4l-24 0c-12,0 -18,-4 -18,-11 0,-2 1,-7 2,-10 2,-11 30,-85 36,-97l125 0zm-855 -488c110,0 213,30 301,83 -53,14 -99,40 -138,80 -61,61 -91,138 -91,233 0,75 19,137 58,187 32,42 75,73 129,94 44,17 90,25 139,25 36,0 72,-5 109,-16 27,-8 53,-18 78,-30 -29,256 -222,463 -472,511 27,-18 52,-43 74,-74l-15 -14c-26,32 -54,55 -83,70 -26,13 -54,19 -83,19 -116,0 -156,-94 -163,-196 32,-10 61,-27 87,-50 51,-45 80,-112 88,-199 25,4 48,13 69,27 34,25 57,61 66,108l15 -2 -8 -159 -13 0c-2,8 -4,14 -6,19 -3,5 -7,8 -12,8 -4,0 -7,-1 -11,-2 -4,-1 -9,-2 -16,-5 -16,-7 -30,-12 -39,-14 -14,-4 -28,-7 -43,-8 0,-8 1,-16 1,-24l0 -471c0,-24 4,-44 13,-58 13,-21 37,-31 72,-31l17 0 0 -27 -252 0 0 27 18 0c35,0 60,11 73,33 8,13 12,32 12,56l0 447c0,16 -1,32 -2,47 -66,3 -121,27 -167,70 -45,43 -69,96 -74,160 -69,-9 -116,-44 -143,-106 -17,-38 -25,-91 -25,-159l0 -465c108,-119 264,-194 437,-194zm342 110c89,63 160,151 202,253l-87 0 0 18 6 0c30,0 50,8 61,24 6,9 9,21 9,39l0 177c-35,29 -80,44 -134,44 -143,0 -213,-128 -222,-261 -7,-130 45,-265 165,-294zm-516 1042c-130,-40 -242,-125 -316,-236 68,44 151,64 222,68 7,57 31,107 72,148 7,7 15,14 22,20zm16 -238c21,-8 40,-19 56,-35 38,-34 61,-86 71,-156 -91,14 -123,99 -127,191zm3390 -154l99 0 0 7 -6 0c-11,0 -18,3 -22,8 -3,4 -4,9 -4,15l0 120c0,17 2,31 8,41 9,19 28,28 55,28 16,0 30,-4 40,-12 16,-12 24,-32 24,-60l0 -117c0,-6 -2,-11 -4,-14 -4,-6 -12,-9 -23,-9l-5 0 0 -7 78 0 0 7 -6 0c-10,0 -18,3 -22,8 -2,4 -4,9 -4,15l0 123c0,29 -9,51 -28,65 -14,11 -32,16 -53,16 -23,0 -42,-4 -57,-12 -25,-14 -38,-38 -38,-73l0 -119c0,-6 -1,-11 -4,-14 -4,-6 -11,-9 -22,-9l-6 0 0 -7zm455 -1l3 73 -6 1c-4,-22 -14,-38 -30,-50 -12,-8 -26,-13 -41,-13 -22,0 -40,8 -55,25 -17,18 -25,45 -25,79 0,32 8,58 24,76 16,18 36,27 61,27 13,0 26,-3 37,-9 13,-7 26,-18 37,-32l7 6c-13,19 -28,33 -45,42 -14,7 -29,10 -45,10 -32,0 -60,-11 -82,-34 -21,-23 -32,-51 -32,-86 0,-34 11,-62 33,-84 22,-22 50,-33 83,-33 11,0 22,1 32,4 5,2 11,4 18,7 3,1 5,2 7,2 2,1 3,1 5,1 2,0 4,-1 5,-3 2,-3 2,-6 3,-9l6 0zm239 0l4 68 -6 0c-7,-20 -18,-35 -34,-45 -13,-8 -28,-13 -45,-13 -22,0 -41,9 -56,26 -18,19 -27,45 -27,77 0,34 9,61 26,81 15,18 35,27 60,27 20,0 37,-5 50,-16l0 -43c0,-6 -1,-11 -3,-14 -4,-6 -12,-9 -23,-9l-2 0 0 -7 92 0 0 7 -3 0c-10,0 -18,3 -22,8 -2,4 -4,9 -4,15l0 48c-14,8 -29,15 -44,19 -14,4 -28,6 -42,6 -18,0 -36,-3 -52,-9 -21,-8 -37,-20 -49,-35 -15,-19 -22,-43 -22,-71 0,-35 11,-65 34,-88 23,-23 53,-34 88,-34 11,0 21,1 30,4 6,1 13,4 21,7 6,3 11,4 14,4 3,0 5,-1 6,-3 1,-3 2,-6 3,-10l6 0zm73 -115c0,48 0,74 -1,85 -1,7 -3,12 -11,12l-20 0c-5,0 -6,2 -6,5l0 9c0,3 1,4 4,4 4,0 22,-1 52,-1 33,0 50,1 53,1 4,0 5,-1 5,-4l0 -9c0,-3 -1,-5 -5,-5l-23 0c-7,0 -11,-2 -11,-16l0 -103c16,6 38,8 52,8 64,0 111,-52 111,-116 0,-38 -9,-58 -28,-77 -15,-13 -33,-24 -59,-24 -34,0 -61,16 -75,33l-1 0 -2 -23c0,-8 -1,-10 -4,-10 -4,0 -8,2 -12,4l-49 23c-3,1 -4,2 -4,4l0 4c0,1 0,3 4,4l12 7c14,7 18,14 18,26l0 159zm37 -177c12,-19 34,-31 55,-31 35,0 67,27 67,96 0,61 -30,82 -60,82 -21,0 -37,-3 -51,-13 -10,-6 -11,-15 -11,-26l0 -108zm-134 21c0,-49 3,-61 3,-66 1,-2 -1,-5 -4,-5 -2,0 -4,1 -6,1 -3,0 -5,1 -9,1l-48 0c-5,0 -6,0 -6,4l0 9c0,2 3,3 11,3 13,1 21,3 22,17l0 117c0,5 -3,11 -5,14 -10,12 -30,24 -44,24 -14,0 -28,-1 -41,-18 -17,-23 -11,-54 -11,-74l0 -35c0,-29 1,-52 2,-57 0,-3 -2,-6 -6,-6 -2,0 -4,1 -6,1 -2,0 -4,1 -7,1l-46 0c-4,0 -5,1 -5,4l0 9c0,2 2,2 11,3 12,1 19,5 20,19l0 57c0,54 -2,70 20,96 17,21 34,23 48,23 26,0 55,-15 70,-35l1 0 4 29c1,5 3,6 5,6 4,0 7,-1 10,-2l54 -17c2,-1 3,-2 2,-5l-1 -6c-1,-2 -2,-3 -6,-2 -6,1 -14,1 -17,1 -6,0 -12,-2 -14,-17 -1,-10 -1,-34 -1,-58l0 -36zm-346 142c64,0 114,-55 114,-108 0,-32 -12,-58 -35,-80 -15,-15 -44,-29 -72,-29 -17,0 -42,4 -69,24 -30,23 -44,54 -44,79 0,35 4,53 28,80 22,25 54,34 78,34zm6 -15c-24,0 -39,-9 -50,-25 -17,-23 -20,-42 -20,-69 0,-37 7,-58 27,-77 13,-13 26,-16 40,-16 26,0 68,34 68,89 0,52 -25,98 -65,98zm-250 -75c0,25 0,42 -1,58 0,7 -4,10 -11,10l-20 0c-5,0 -6,1 -6,4l0 9c0,4 1,5 3,5 3,0 25,-2 57,-2 27,0 51,2 54,2 2,0 3,-2 3,-5l0 -9c0,-3 -1,-4 -4,-4l-24 0c-11,0 -14,-5 -14,-20l0 -102c0,-2 2,-11 5,-16 8,-16 22,-21 30,-21 7,0 13,2 17,4 4,2 9,4 15,4 9,0 22,-10 22,-24 0,-11 -9,-22 -27,-22 -22,0 -46,21 -61,43l-2 0 -3 -35c0,-3 -1,-6 -4,-6 -2,0 -4,1 -7,2l-51 25c-3,2 -4,3 -4,5l0 3c0,2 1,2 4,3l10 5c14,7 19,12 19,37l0 47zm-146 12c0,25 -2,36 -13,43 -18,10 -44,17 -85,17 -33,0 -65,-12 -90,-35 -32,-29 -49,-80 -49,-138 0,-44 17,-85 45,-113 31,-31 63,-39 98,-39 47,0 79,22 94,40 18,21 27,44 31,58 0,2 2,4 4,4l9 -1c2,0 3,-2 3,-5l-2 -93c0,-4 -1,-6 -4,-6 -3,0 -6,2 -8,4l-7 9c-3,4 -6,5 -12,1 -18,-13 -57,-29 -101,-29 -62,0 -108,17 -145,47 -38,32 -58,80 -58,124 0,60 16,101 47,135 36,40 98,56 144,56 58,0 99,-11 141,-31 5,-2 8,-4 8,-8 0,-4 -2,-9 -2,-16l0 -64c0,-16 6,-19 16,-19l20 0c3,0 3,-2 3,-4l0 -12c0,-2 0,-3 -4,-3 -7,0 -23,1 -60,1 -35,0 -59,-1 -66,-1 -2,0 -3,1 -3,4l0 12c0,2 1,3 4,3l21 0c16,0 21,5 21,22l0 37zm-529 78c43,0 77,-25 78,-65 -1,-38 -24,-52 -62,-63 -25,-7 -48,-12 -48,-41 0,-21 19,-32 39,-32 20,0 29,10 35,19l18 23c1,2 2,3 4,2l6 -2c3,-1 4,-2 4,-4l-8 -34c0,-3 -1,-6 -9,-9 -9,-5 -22,-11 -47,-11 -38,0 -71,26 -71,60 0,39 30,54 60,63 38,10 50,23 50,45 0,23 -23,33 -41,33 -27,0 -34,-12 -44,-30l-13 -24c-1,-3 -2,-4 -4,-3l-7 1c-2,1 -4,2 -3,4l9 47c0,2 0,5 3,7 6,4 26,14 51,14zm-178 -201c12,0 23,2 34,22 8,13 17,19 28,19 11,0 19,-6 19,-17 0,-10 -16,-40 -69,-40 -67,0 -109,58 -109,116 0,22 4,42 23,66 23,29 52,35 79,35 34,0 67,-19 82,-35 2,-3 2,-4 0,-6l-5 -5c-2,-2 -3,-1 -4,0 -18,15 -31,21 -56,21 -18,0 -39,-4 -56,-25 -14,-18 -26,-48 -26,-75 0,-50 31,-76 60,-76zm-195 124c0,15 0,30 0,45 -1,8 -3,10 -9,10l-25 0c-3,0 -5,1 -5,4l0 10c0,3 2,4 4,4 6,0 26,-2 55,-2 22,0 45,2 49,2 4,0 5,-2 5,-5l0 -9c0,-3 -1,-4 -5,-4l-24 0c-5,0 -7,-4 -8,-13 0,-5 0,-23 0,-42l0 -54c0,-40 0,-71 1,-80 0,-3 0,-6 -3,-6 -3,0 -5,1 -9,3 -20,11 -39,18 -55,24 -3,1 -4,2 -4,4l0 4c0,2 1,3 5,4 25,4 28,12 28,29l0 72zm5 -195c22,0 31,-16 31,-29 0,-11 -9,-26 -28,-26 -21,0 -32,15 -32,27 0,17 17,28 29,28zm-138 156c0,-23 0,-47 1,-70l66 0c3,0 4,-1 4,-4l5 -17c2,-2 0,-4 -3,-4l-71 0 3 -48c0,-4 -1,-8 -5,-8 -4,0 -6,1 -8,5 -6,17 -45,55 -58,62 -6,3 -9,4 -9,8 0,4 3,6 8,6l31 0c-1,21 -1,54 -1,63l0 11c0,7 -2,50 -2,70 0,19 25,42 50,42 30,0 51,-15 56,-20 2,-1 3,-3 1,-5l-2 -5c-2,-2 -4,-2 -6,-1 -7,5 -22,7 -34,7 -9,0 -26,-7 -26,-43l0 -49zm-119 -21c8,0 14,-1 14,-7 0,-20 -16,-73 -75,-73 -25,0 -51,5 -73,26 -27,26 -32,59 -32,78 0,35 5,53 23,78 18,27 51,35 80,35 45,0 71,-34 81,-54 2,-5 1,-7 0,-7l-7 -3c-2,-1 -4,0 -5,2 -8,16 -30,33 -61,33 -41,0 -73,-36 -73,-84 0,-11 1,-19 2,-24l126 0zm-124 -14c10,-37 31,-51 53,-51 34,0 40,33 40,44 0,4 -4,7 -14,7l-79 0zm-285 26c0,32 0,86 -2,95 -1,6 -9,8 -17,8l-11 0c-5,0 -7,0 -7,4l0 9c0,3 1,5 3,5 5,0 24,-2 50,-2 23,0 44,2 48,2 3,0 4,-3 4,-6l0 -8c0,-3 -2,-4 -5,-4l-16 0c-9,0 -11,-5 -11,-20l0 -107c0,-9 6,-19 10,-24 15,-16 33,-21 48,-21 13,0 23,4 33,14 15,13 17,33 17,60l0 40c0,16 1,42 0,48 0,9 -10,10 -19,10l-12 0c-3,0 -3,1 -3,4l0 8c0,4 1,6 4,6 5,0 23,-2 48,-2 29,0 45,2 49,2 3,0 4,-3 4,-6l0 -8c0,-3 -1,-4 -5,-4l-9 0c-11,0 -19,-2 -19,-8 0,-9 -1,-39 -1,-67l0 -28c0,-26 1,-51 -22,-72 -14,-13 -29,-20 -50,-20 -23,0 -52,12 -70,32l-3 0 0 -31c0,-25 1,-124 2,-133 1,-8 -1,-12 -4,-12 -4,0 -8,2 -12,4l-53 27c-5,2 -6,3 -6,5l0 4c0,2 0,2 3,3l9 3c18,6 25,11 25,41l0 149zm-127 9c0,-23 1,-47 2,-70l65 0c3,0 4,-1 5,-4l5 -17c1,-2 0,-4 -3,-4l-71 0 2 -48c0,-4 -1,-8 -5,-8 -3,0 -5,1 -7,5 -7,17 -46,55 -58,62 -6,3 -9,4 -9,8 0,4 3,6 7,6l31 0c0,21 -1,54 -1,63l0 11c0,7 -1,50 -1,70 0,19 24,42 49,42 31,0 52,-15 57,-20 1,-1 2,-3 1,-5l-3 -5c-1,-2 -3,-2 -6,-1 -7,5 -22,7 -33,7 -10,0 -27,-7 -27,-43l0 -49zm-183 116c44,0 77,-25 78,-65 -1,-38 -24,-52 -62,-63 -24,-7 -48,-12 -48,-41 0,-21 19,-32 39,-32 20,0 29,10 35,19l18 23c1,2 2,3 4,2l7 -2c2,-1 3,-2 3,-4l-8 -34c0,-3 -1,-6 -9,-9 -9,-5 -22,-11 -47,-11 -38,0 -71,26 -71,60 0,39 30,54 60,63 38,10 50,23 50,45 0,23 -23,33 -41,33 -27,0 -34,-12 -44,-30l-13 -24c-1,-3 -2,-4 -4,-3l-7 1c-2,1 -4,2 -3,4l9 47c0,2 0,5 3,7 6,4 26,14 51,14zm-117 -137c8,0 14,-1 14,-7 0,-20 -16,-73 -75,-73 -25,0 -51,5 -73,26 -27,26 -32,59 -32,78 0,35 5,53 23,78 19,27 51,35 80,35 45,0 72,-34 81,-54 2,-5 1,-7 0,-7l-7 -3c-1,-1 -3,0 -4,2 -9,16 -31,33 -62,33 -41,0 -72,-36 -72,-84 0,-11 0,-19 1,-24l126 0zm-124 -14c10,-37 31,-51 54,-51 33,0 39,33 39,44 0,4 -4,7 -14,7l-79 0zm-316 -9c4,-12 52,-138 55,-144 1,-4 3,-8 5,-8 2,0 3,4 4,7 3,7 44,130 49,145l-113 0z"></path>
    <path fill="#ffffff" class="fil1" d="M1400 777l5 63 -6 0c-5,-16 -12,-28 -20,-36 -12,-11 -27,-17 -46,-17 -25,0 -44,10 -58,31 -11,17 -16,37 -16,60 0,19 3,37 11,53 7,15 17,27 29,34 12,7 24,11 37,11 7,0 14,-1 21,-3 7,-2 13,-4 20,-8l0 -58c0,-10 -1,-17 -2,-20 -2,-3 -4,-5 -7,-7 -4,-2 -9,-2 -17,-2l0 -6 77 0 0 6 -4 0c-7,0 -13,2 -16,7 -1,4 -2,11 -2,22l0 61c-12,6 -23,11 -34,14 -11,3 -23,4 -37,4 -38,0 -67,-12 -88,-37 -15,-19 -22,-40 -22,-64 0,-18 4,-35 13,-51 10,-19 23,-34 41,-44 14,-9 32,-13 52,-13 7,0 14,0 20,1 5,2 14,4 25,8 5,2 9,3 11,3 2,0 3,0 5,-2 1,-2 2,-5 2,-10l6 0zm82 65l0 31c11,-21 23,-31 34,-31 6,0 10,2 14,5 3,4 5,7 5,12 0,4 -1,7 -4,10 -2,2 -5,3 -9,3 -3,0 -7,-1 -11,-5 -5,-3 -8,-5 -10,-5 -2,0 -4,1 -6,3 -4,4 -9,11 -13,20l0 65c0,7 1,13 3,17 1,3 3,5 6,6 4,2 8,3 14,3l0 6 -69 0 0 -6c7,0 12,-1 15,-3 3,-2 5,-4 6,-8 0,-1 0,-6 0,-14l0 -52c0,-16 0,-25 -1,-28 0,-3 -1,-5 -3,-7 -2,-1 -4,-2 -7,-2 -3,0 -6,1 -10,2l-1 -5 41 -17 6 0zm127 0c21,0 37,8 49,24 11,13 16,28 16,45 0,12 -3,25 -9,37 -5,12 -13,22 -23,28 -11,6 -22,9 -35,9 -20,0 -36,-8 -48,-24 -10,-14 -15,-29 -15,-46 0,-12 3,-25 9,-37 6,-12 14,-21 24,-27 10,-6 21,-9 32,-9zm-4 10c-6,0 -11,2 -16,5 -5,3 -10,8 -13,16 -3,8 -5,18 -5,30 0,19 4,36 12,51 8,14 18,21 31,21 9,0 17,-4 23,-12 7,-8 10,-21 10,-40 0,-24 -5,-43 -16,-57 -7,-9 -16,-14 -26,-14zm207 -6l0 82c0,16 1,25 1,29 1,3 2,6 4,7 2,1 3,2 6,2 3,0 6,-1 10,-3l2 6 -41 16 -6 0 0 -28c-12,13 -21,20 -27,24 -6,3 -12,4 -19,4 -8,0 -14,-2 -20,-6 -5,-4 -9,-10 -11,-17 -3,-7 -4,-17 -4,-29l0 -61c0,-6 0,-10 -2,-13 -1,-2 -3,-4 -6,-5 -2,-2 -7,-2 -15,-2l0 -6 48 0 0 91c0,13 2,21 6,25 5,4 10,6 16,6 5,0 9,-2 15,-4 5,-3 11,-8 19,-16l0 -76c0,-8 -2,-13 -4,-16 -3,-3 -9,-4 -18,-4l0 -6 46 0zm23 13l41 -16 6 0 0 31c7,-12 14,-20 21,-25 7,-4 15,-7 22,-7 14,0 25,6 34,16 11,13 17,30 17,51 0,23 -7,42 -20,58 -11,12 -25,18 -42,18 -7,0 -13,-1 -19,-3 -4,-1 -8,-4 -13,-8l0 41c0,9 1,15 2,18 1,2 3,4 6,6 2,1 8,2 15,2l0 5 -71 0 0 -5 4 0c5,0 10,-1 14,-3 2,-1 3,-3 4,-6 1,-2 2,-8 2,-18l0 -128c0,-9 -1,-14 -2,-17 0,-2 -2,-4 -3,-5 -2,-1 -4,-2 -7,-2 -3,0 -6,1 -9,2l-2 -5zm47 24l0 51c0,10 1,18 1,21 2,6 5,11 10,15 6,5 13,7 21,7 10,0 18,-4 24,-12 8,-10 12,-24 12,-42 0,-21 -5,-37 -14,-48 -6,-8 -14,-12 -22,-12 -5,0 -10,2 -14,4 -4,2 -10,7 -18,16zm256 -41c20,0 37,8 49,24 11,13 16,28 16,45 0,12 -3,25 -9,37 -6,12 -14,22 -24,28 -10,6 -21,9 -34,9 -20,0 -36,-8 -48,-24 -11,-14 -16,-29 -16,-46 0,-12 3,-25 10,-37 6,-12 14,-21 24,-27 10,-6 21,-9 32,-9zm-5 10c-5,0 -10,2 -16,5 -5,3 -9,8 -12,16 -4,8 -5,18 -5,30 0,19 4,36 12,51 7,14 18,21 31,21 9,0 17,-4 23,-12 6,-8 9,-21 9,-40 0,-24 -5,-43 -15,-57 -7,-9 -16,-14 -27,-14zm142 5l0 89c0,12 1,20 4,24 4,4 9,6 15,6l12 0 0 6 -81 0 0 -6 6 0c4,0 8,-1 11,-3 3,-2 6,-4 7,-8 1,-3 2,-10 2,-19l0 -89 -27 0 0 -11 27 0 0 -9c0,-13 2,-24 6,-34 4,-9 11,-17 20,-22 9,-6 19,-9 30,-9 10,0 20,4 29,10 5,5 8,9 8,15 0,3 -1,6 -4,8 -2,3 -5,4 -8,4 -2,0 -4,-1 -7,-2 -3,-2 -6,-5 -9,-11 -4,-5 -7,-9 -10,-10 -3,-2 -7,-3 -11,-3 -4,0 -8,1 -11,3 -3,3 -5,6 -7,12 -1,5 -2,18 -2,39l0 9 35 0 0 11 -35 0zm238 73c-3,18 -10,32 -21,41 -11,10 -22,14 -35,14 -16,0 -29,-6 -40,-19 -12,-13 -17,-30 -17,-52 0,-21 6,-39 18,-52 13,-13 28,-20 46,-20 13,0 24,4 33,11 8,7 13,14 13,22 0,3 -2,7 -4,9 -3,2 -6,3 -10,3 -6,0 -10,-2 -13,-5 -2,-2 -3,-6 -4,-12 0,-6 -2,-11 -6,-14 -3,-3 -8,-4 -14,-4 -10,0 -18,4 -24,11 -8,10 -12,22 -12,38 0,16 4,31 12,43 8,12 19,19 32,19 10,0 19,-4 26,-10 6,-5 11,-13 16,-25l4 2zm86 -88c21,0 37,8 49,24 11,13 16,28 16,45 0,12 -3,25 -9,37 -5,12 -13,22 -24,28 -10,6 -21,9 -34,9 -20,0 -36,-8 -48,-24 -10,-14 -15,-29 -15,-46 0,-12 3,-25 9,-37 6,-12 14,-21 24,-27 10,-6 21,-9 32,-9zm-5 10c-5,0 -10,2 -15,5 -5,3 -10,8 -13,16 -3,8 -5,18 -5,30 0,19 4,36 12,51 8,14 18,21 31,21 9,0 17,-4 23,-12 7,-8 10,-21 10,-40 0,-24 -6,-43 -16,-57 -7,-9 -16,-14 -27,-14zm130 19c10,-10 16,-15 17,-17 5,-4 9,-7 15,-9 5,-2 10,-3 15,-3 8,0 15,3 21,8 6,5 10,12 12,21 11,-12 19,-19 26,-23 7,-4 14,-6 22,-6 7,0 13,2 19,6 5,3 10,10 13,18 2,6 3,15 3,27l0 58c0,8 1,14 2,17 1,2 3,4 6,6 2,1 6,2 12,2l0 6 -66 0 0 -6 3 0c6,0 10,-1 14,-3 2,-2 3,-4 4,-8 1,-1 1,-6 1,-14l0 -58c0,-11 -1,-19 -4,-23 -4,-7 -10,-10 -19,-10 -5,0 -10,1 -15,4 -6,3 -12,7 -19,15l-1 1 1 7 0 64c0,9 0,15 1,17 1,2 3,4 6,6 3,1 8,2 15,2l0 6 -68 0 0 -6c7,0 12,-1 15,-3 3,-1 5,-4 6,-7 0,-2 0,-7 0,-15l0 -58c0,-11 -1,-19 -4,-24 -5,-6 -11,-10 -19,-10 -5,0 -10,2 -15,5 -8,4 -15,9 -19,15l0 72c0,9 1,15 2,17 1,3 3,5 5,6 3,1 7,2 15,2l0 6 -67 0 0 -6c6,0 10,-1 13,-2 2,-1 4,-3 6,-6 1,-3 2,-9 2,-17l0 -52c0,-14 -1,-24 -2,-28 -1,-4 -2,-6 -3,-7 -2,-1 -4,-2 -6,-2 -3,0 -6,1 -10,2l-2 -5 41 -17 6 0 0 29zm185 -12l41 -16 6 0 0 31c7,-12 14,-20 21,-25 7,-4 14,-7 22,-7 14,0 25,6 34,16 11,13 17,30 17,51 0,23 -7,42 -20,58 -11,12 -25,18 -42,18 -7,0 -13,-1 -19,-3 -4,-1 -8,-4 -13,-8l0 41c0,9 1,15 2,18 1,2 3,4 6,6 2,1 8,2 15,2l0 5 -71 0 0 -5 4 0c5,0 10,-1 14,-3 1,-1 3,-3 4,-6 1,-2 1,-8 1,-18l0 -128c0,-9 0,-14 -1,-17 0,-2 -2,-4 -3,-5 -2,-1 -4,-2 -7,-2 -3,0 -6,1 -9,2l-2 -5zm47 24l0 51c0,10 0,18 1,21 2,6 5,11 10,15 6,5 13,7 21,7 10,0 18,-4 24,-12 8,-10 12,-24 12,-42 0,-21 -5,-37 -14,-48 -6,-8 -14,-12 -22,-12 -5,0 -10,2 -14,4 -4,2 -10,7 -18,16zm190 79c-14,11 -23,17 -26,19 -5,2 -11,3 -17,3 -9,0 -17,-3 -23,-9 -6,-7 -9,-15 -9,-26 0,-6 1,-12 4,-17 4,-6 11,-13 21,-19 10,-6 27,-13 50,-21l0 -5c0,-14 -2,-23 -6,-28 -5,-5 -11,-8 -19,-8 -6,0 -11,2 -15,5 -3,4 -5,8 -5,12l0 8c0,5 -1,8 -4,11 -2,2 -5,4 -9,4 -3,0 -6,-2 -9,-4 -2,-3 -3,-6 -3,-11 0,-8 4,-16 13,-23 9,-7 21,-11 36,-11 12,0 22,2 30,6 6,3 10,8 13,15 2,4 2,12 2,25l0 46c0,13 1,21 1,24 1,3 2,5 3,6 1,1 2,1 4,1 1,0 3,0 4,-1 2,-1 6,-5 12,-11l0 9c-11,15 -22,22 -32,22 -5,0 -9,-2 -12,-5 -2,-3 -4,-9 -4,-17zm0 -10l0 -51c-15,6 -25,10 -29,12 -8,5 -13,9 -17,14 -3,5 -5,10 -5,15 0,8 2,13 7,18 4,5 9,7 14,7 8,0 18,-5 30,-15zm97 -81c16,-19 31,-29 45,-29 8,0 14,2 19,6 6,3 10,10 13,18 2,6 3,15 3,27l0 58c0,9 1,14 2,17 1,3 3,5 6,6 2,1 6,2 13,2l0 6 -67 0 0 -6 3 0c6,0 10,-1 13,-3 2,-2 4,-4 5,-8 1,-2 1,-6 1,-14l0 -56c0,-12 -2,-21 -5,-27 -3,-5 -8,-8 -16,-8 -12,0 -23,6 -35,19l0 72c0,9 1,15 2,17 1,3 3,5 6,6 2,1 7,2 14,2l0 6 -67 0 0 -6 3 0c7,0 12,-2 14,-5 3,-4 4,-10 4,-20l0 -50c0,-16 -1,-26 -1,-30 -1,-3 -2,-6 -4,-7 -1,-1 -3,-2 -6,-2 -3,0 -6,1 -10,2l-2 -5 41 -17 6 0 0 29zm146 -99c4,0 8,1 11,4 3,3 4,6 4,10 0,5 -1,8 -4,11 -3,3 -7,4 -11,4 -4,0 -7,-1 -10,-4 -3,-3 -5,-6 -5,-11 0,-4 2,-7 5,-10 3,-3 6,-4 10,-4zm13 70l0 109c0,8 0,14 1,17 2,3 3,5 6,6 2,1 7,2 13,2l0 6 -66 0 0 -6c7,0 11,-1 14,-2 2,-1 4,-3 5,-6 1,-3 2,-9 2,-17l0 -52c0,-15 0,-24 -1,-29 -1,-3 -2,-5 -4,-6 -1,-1 -3,-2 -6,-2 -2,0 -6,1 -10,2l-2 -5 41 -17 7 0zm59 55c0,20 5,36 15,47 10,12 21,17 35,17 8,0 16,-2 23,-7 6,-5 12,-13 16,-25l5 3c-2,14 -8,26 -18,37 -10,11 -23,16 -38,16 -16,0 -30,-6 -41,-18 -12,-13 -18,-30 -18,-51 0,-23 6,-41 18,-54 12,-13 27,-20 45,-20 15,0 27,5 37,15 10,10 15,24 15,40l-94 0zm0 -8l63 0c-1,-9 -2,-15 -3,-18 -3,-6 -6,-10 -11,-13 -5,-4 -10,-5 -16,-5 -8,0 -15,3 -21,9 -7,7 -11,16 -12,27zm199 -47l0 46 -5 0c-4,-14 -8,-24 -14,-29 -6,-5 -13,-8 -22,-8 -7,0 -13,2 -17,5 -4,4 -6,8 -6,13 0,5 1,10 4,14 3,4 10,8 19,13l21 10c20,10 30,23 30,38 0,13 -4,23 -14,30 -9,8 -19,11 -31,11 -8,0 -18,-1 -28,-4 -3,-1 -6,-1 -8,-1 -2,0 -4,1 -5,3l-5 0 0 -48 5 0c2,14 8,24 15,31 8,7 17,11 27,11 6,0 12,-2 16,-6 4,-4 7,-9 7,-15 0,-6 -3,-12 -8,-17 -4,-4 -14,-10 -28,-17 -15,-7 -24,-14 -28,-19 -5,-6 -7,-13 -7,-22 0,-11 4,-20 12,-27 7,-8 17,-12 29,-12 5,0 12,1 19,4 5,1 9,2 10,2 2,0 3,0 4,-1 1,-1 2,-2 3,-5l5 0z"></path>
    </g>
</g>
</svg>