<svg width="174" height="38" viewBox="0 0 174 38" fill="none" xmlns="http://www.w3.org/2000/svg">
<path fill-rule="evenodd" clip-rule="evenodd" d="M88.3376 27.1058H173.331V2.33447H76.9648L88.3376 27.1058Z" fill="url(#paint0_linear_172_3)"/>
<path d="M4.02529 37.3234C3.69992 37.3234 3.40015 37.2706 3.12544 37.1657C2.85177 37.0612 2.61361 36.9124 2.41202 36.7202C2.21147 36.528 2.05375 36.3034 1.9399 36.046C1.82657 35.7885 1.76965 35.5048 1.76965 35.1962C1.76965 34.887 1.82657 34.604 1.9399 34.3465C2.05375 34.089 2.212 33.8644 2.41516 33.6717C2.61936 33.4801 2.85752 33.3313 3.13171 33.2263C3.40642 33.1213 3.70619 33.0691 4.03156 33.0691C4.36059 33.0691 4.66506 33.1233 4.94343 33.2325C5.22179 33.3411 5.45889 33.5025 5.65421 33.7166L5.25729 34.0911C5.09487 33.9245 4.91208 33.8007 4.70892 33.7198C4.50472 33.6383 4.28746 33.5976 4.05609 33.5976C3.81638 33.5976 3.59337 33.6372 3.38812 33.7166C3.1834 33.796 3.0048 33.9068 2.85439 34.0493C2.7045 34.1919 2.5875 34.3612 2.50342 34.557C2.42038 34.7534 2.37913 34.9664 2.37913 35.1962C2.37913 35.426 2.42038 35.6391 2.50342 35.8349C2.5875 36.0313 2.7045 36.2005 2.85439 36.3431C3.0048 36.4857 3.1834 36.5964 3.38812 36.6757C3.59337 36.7551 3.81638 36.7944 4.05609 36.7944C4.28746 36.7944 4.50472 36.7542 4.70892 36.6727C4.91208 36.5917 5.09487 36.4658 5.25729 36.2956L5.65421 36.67C5.45889 36.8836 5.22179 37.0461 4.94343 37.1573C4.66506 37.268 4.35901 37.3234 4.02529 37.3234Z" fill="#253159"/>
<path d="M7.07872 34.9107H9.2743V35.4157H7.07872V34.9107ZM7.13357 36.7584H9.62159V37.2754H6.52356V33.1162H9.53647V33.6332H7.13357V36.7584Z" fill="#253159"/>
<path d="M10.6095 37.2754V33.1162H11.1093L13.9331 36.5328H13.671V33.1162H14.2804V37.2754H13.7806L10.9563 33.8588H11.2195V37.2754H10.6095Z" fill="#253159"/>
<path d="M16.4097 37.2754V33.6332H14.9453V33.1162H18.4763V33.6332H17.0135V37.2754H16.4097Z" fill="#253159"/>
<path d="M21.9937 37.2754L20.909 35.7661H21.5613L22.6591 37.2754H21.9937ZM19.7501 35.7959L19.4759 35.5049H20.7868C21.1774 35.5049 21.4725 35.4225 21.6741 35.2585C21.8757 35.094 21.9754 34.8632 21.9754 34.566C21.9754 34.2688 21.8757 34.0395 21.6741 33.8765C21.4725 33.7141 21.1774 33.6332 20.7868 33.6332H19.4759L19.7501 33.336V35.7959ZM19.1406 37.2754V33.1162H20.8051C21.179 33.1162 21.4976 33.1736 21.7629 33.2885C22.0272 33.4034 22.2303 33.57 22.3724 33.7873C22.5144 34.0056 22.586 34.2652 22.586 34.566C22.586 34.8673 22.5144 35.1253 22.3724 35.3415C22.2303 35.5572 22.0272 35.7228 21.7629 35.8377C21.4976 35.952 21.179 36.01 20.8051 36.01H19.4759L19.7501 35.7369V37.2754H19.1406Z" fill="#253159"/>
<path d="M23.7522 36.2356L23.9178 35.7604H26.3197L26.4967 36.2356H23.7522ZM22.9297 37.2754L24.8631 33.1162H25.4663L27.406 37.2754H26.7652L25.0396 33.4488H25.2835L23.558 37.2754H22.9297Z" fill="#253159"/>
<path d="M28.0392 37.2754V33.1162H28.6492V36.7584H30.9602V37.2754H28.0392Z" fill="#253159"/>
<path d="M33.4754 36.2356L33.6399 35.7604H36.0434L36.2199 36.2356H33.4754ZM32.6523 37.2754L34.5852 33.1162H35.1895L37.1286 37.2754H36.4883L34.7623 33.4488H35.0067L33.2801 37.2754H32.6523Z" fill="#253159"/>
<path d="M39.0052 37.3234C38.6799 37.3234 38.3691 37.2748 38.0725 37.1777C37.7759 37.0811 37.5419 36.9552 37.3711 36.8006L37.5962 36.3368C37.7597 36.4757 37.966 36.5907 38.2182 36.6816C38.471 36.773 38.7331 36.8183 39.0052 36.8183C39.2533 36.8183 39.4549 36.7907 39.609 36.7353C39.763 36.68 39.8774 36.6031 39.95 36.5065C40.0242 36.4094 40.0602 36.2993 40.0602 36.1765C40.0602 36.034 40.0122 35.919 39.9171 35.8318C39.8221 35.7451 39.6972 35.6746 39.5447 35.6213C39.3928 35.5675 39.2251 35.5211 39.0423 35.4814C38.859 35.4417 38.6752 35.3952 38.4898 35.3414C38.3054 35.2882 38.1362 35.2197 37.9842 35.1367C37.8317 35.0537 37.7085 34.9419 37.615 34.8009C37.521 34.6604 37.475 34.4792 37.475 34.2577C37.475 34.0436 37.5325 33.8462 37.6489 33.666C37.7638 33.4858 37.9435 33.3411 38.1853 33.2325C38.4266 33.1233 38.7352 33.0691 39.1087 33.0691C39.3572 33.0691 39.6027 33.1009 39.8471 33.1641C40.091 33.2273 40.3025 33.3187 40.4806 33.4372L40.2801 33.9125C40.0973 33.7939 39.9041 33.7078 39.7004 33.654C39.4972 33.6007 39.3003 33.5741 39.1087 33.5741C38.8689 33.5741 38.6721 33.6033 38.5175 33.6634C38.3634 33.7224 38.2495 33.8018 38.179 33.9005C38.1075 33.9998 38.0725 34.1109 38.0725 34.2337C38.0725 34.3799 38.12 34.4969 38.2156 34.5842C38.3106 34.6714 38.4355 34.7409 38.5874 34.792C38.7399 34.8437 38.9076 34.8902 39.0904 34.932C39.2732 34.9732 39.4581 35.0197 39.6424 35.0714C39.8278 35.1231 39.9965 35.1905 40.1485 35.2735C40.3015 35.3565 40.4237 35.4678 40.5177 35.6062C40.6117 35.7452 40.6577 35.9232 40.6577 36.1409C40.6577 36.3509 40.5992 36.5457 40.4806 36.7264C40.3626 36.9066 40.1814 37.0513 39.9354 37.16C39.6894 37.2691 39.3797 37.3234 39.0052 37.3234Z" fill="#253159"/>
<path d="M41.5508 33.1162H42.1613V37.2754H41.5508V33.1162Z" fill="#253159"/>
<path d="M43.6205 36.2356L43.785 35.7604H46.1879L46.365 36.2356H43.6205ZM42.7969 37.2754L44.7303 33.1162H45.3335L47.2737 37.2754H46.6334L44.9068 33.4488H45.1512L43.4252 37.2754H42.7969Z" fill="#253159"/>
<path d="M47.9022 37.2754V33.1162H48.4026L51.2264 36.5328H50.9642V33.1162H51.5737V37.2754H51.0734L48.2495 33.8588H48.5122V37.2754H47.9022Z" fill="#253159"/>
<path d="M54.6741 36.2356L54.8391 35.7604H57.2415L57.4186 36.2356H54.6741ZM53.8516 37.2754L55.785 33.1162H56.3882L58.3273 37.2754H57.687L55.9615 33.4488H56.2048L54.4798 37.2754H53.8516Z" fill="#253159"/>
<path d="M59.52 34.9107H61.7151V35.4157H59.52V34.9107ZM59.5749 36.7584H62.0629V37.2754H58.9648V33.1162H61.9772V33.6332H59.5749V36.7584Z" fill="#253159"/>
<path d="M64.2943 37.3234C63.9689 37.3234 63.6582 37.2748 63.3615 37.1777C63.0644 37.0811 62.8309 36.9552 62.6602 36.8006L62.8853 36.3368C63.0487 36.4757 63.255 36.5907 63.5072 36.6816C63.7595 36.773 64.0217 36.8183 64.2943 36.8183C64.5424 36.8183 64.744 36.7907 64.8986 36.7353C65.0521 36.68 65.167 36.6031 65.2396 36.5065C65.3132 36.4094 65.3493 36.2993 65.3493 36.1765C65.3493 36.034 65.3012 35.919 65.2062 35.8318C65.1106 35.7451 64.9868 35.6746 64.8338 35.6213C64.6818 35.5675 64.5142 35.5211 64.3309 35.4814C64.1481 35.4417 63.9642 35.3952 63.7788 35.3414C63.5945 35.2882 63.4253 35.2197 63.2728 35.1367C63.1208 35.0537 62.9975 34.9419 62.9035 34.8009C62.8106 34.6604 62.7641 34.4792 62.7641 34.2577C62.7641 34.0436 62.8215 33.8462 62.938 33.666C63.0529 33.4858 63.232 33.3411 63.4744 33.2325C63.7156 33.1233 64.0243 33.0691 64.3977 33.0691C64.6463 33.0691 64.8923 33.1009 65.1362 33.1641C65.3796 33.2273 65.5911 33.3187 65.7702 33.4372L65.5691 33.9125C65.3858 33.7939 65.1931 33.7078 64.9899 33.654C64.7863 33.6007 64.5894 33.5741 64.3977 33.5741C64.158 33.5741 63.9611 33.6033 63.8065 33.6634C63.6519 33.7224 63.5386 33.8018 63.4681 33.9005C63.3965 33.9998 63.3615 34.1109 63.3615 34.2337C63.3615 34.3799 63.4091 34.4969 63.5046 34.5842C63.6002 34.6714 63.7245 34.7409 63.8765 34.792C64.029 34.8437 64.1972 34.8902 64.3794 34.932C64.5622 34.9732 64.7471 35.0197 64.9314 35.0714C65.1169 35.1231 65.285 35.1905 65.4375 35.2735C65.5905 35.3565 65.7133 35.4678 65.8068 35.6062C65.9008 35.7452 65.9473 35.9232 65.9473 36.1409C65.9473 36.3509 65.8882 36.5457 65.7702 36.7264C65.6516 36.9066 65.4704 37.0513 65.2245 37.16C64.9785 37.2691 64.6688 37.3234 64.2943 37.3234Z" fill="#253159"/>
<path d="M67.6235 37.2754V33.6332H66.1602V33.1162H69.6906V33.6332H68.2273V37.2754H67.6235Z" fill="#253159"/>
<path d="M73.413 33.1162H74.023V37.2754H73.413V33.1162ZM73.4673 35.4214H70.8999V34.9049H73.4673V35.4214ZM70.9615 37.2754H70.3516V33.1162H70.9615V37.2754Z" fill="#253159"/>
<path d="M75.8598 34.9107H78.0549V35.4157H75.8598V34.9107ZM75.9152 36.7584H78.4027V37.2754H75.3047V33.1162H78.3171V33.6332H75.9152V36.7584Z" fill="#253159"/>
<path d="M80.2368 37.2754V33.6332H78.7734V33.1162H82.3044V33.6332H80.8411V37.2754H80.2368Z" fill="#253159"/>
<path d="M82.9727 33.1162H83.5816V37.2754H82.9727V33.1162Z" fill="#253159"/>
<path d="M86.7719 37.3234C86.4466 37.3234 86.1473 37.2706 85.8726 37.1657C85.5984 37.0612 85.3597 36.9124 85.1592 36.7202C84.9576 36.528 84.7999 36.3034 84.686 36.046C84.5727 35.7885 84.5157 35.5048 84.5157 35.1962C84.5157 34.887 84.5727 34.604 84.686 34.3465C84.7999 34.089 84.9581 33.8644 85.1618 33.6717C85.3655 33.4801 85.6041 33.3313 85.8788 33.2263C86.1525 33.1213 86.4523 33.0691 86.7777 33.0691C87.1067 33.0691 87.4111 33.1233 87.69 33.2325C87.9679 33.3411 88.2045 33.5025 88.4003 33.7166L88.0034 34.0911C87.8415 33.9245 87.6582 33.8007 87.455 33.7198C87.2513 33.6383 87.0336 33.5976 86.8022 33.5976C86.5625 33.5976 86.34 33.6372 86.1348 33.7166C85.9295 33.796 85.7509 33.9068 85.601 34.0493C85.4506 34.1919 85.3336 34.3612 85.2506 34.557C85.167 34.7534 85.1252 34.9664 85.1252 35.1962C85.1252 35.426 85.167 35.6391 85.2506 35.8349C85.3336 36.0313 85.4506 36.2005 85.601 36.3431C85.7509 36.4857 85.9295 36.5964 86.1348 36.6757C86.34 36.7551 86.5625 36.7944 86.8022 36.7944C87.0336 36.7944 87.2513 36.7542 87.455 36.6727C87.6582 36.5917 87.8415 36.4658 88.0034 36.2956L88.4003 36.67C88.2045 36.8836 87.9679 37.0461 87.69 37.1573C87.4111 37.268 87.1051 37.3234 86.7719 37.3234Z" fill="#253159"/>
<path d="M90.5052 37.3234C90.1799 37.3234 89.8686 37.2748 89.5725 37.1777C89.2759 37.0811 89.0419 36.9552 88.8711 36.8006L89.0967 36.3368C89.2597 36.4757 89.466 36.5907 89.7187 36.6816C89.971 36.773 90.2331 36.8183 90.5052 36.8183C90.7528 36.8183 90.9539 36.7907 91.109 36.7353C91.2636 36.68 91.3769 36.6031 91.4501 36.5065C91.5232 36.4094 91.5602 36.2993 91.5602 36.1765C91.5602 36.034 91.5127 35.919 91.4171 35.8318C91.321 35.7451 91.1973 35.6746 91.0453 35.6213C90.8928 35.5675 90.7251 35.5211 90.5423 35.4814C90.359 35.4417 90.1747 35.3952 89.9903 35.3414C89.8049 35.2882 89.6362 35.2197 89.4832 35.1367C89.3312 35.0537 89.208 34.9419 89.115 34.8009C89.021 34.6604 88.9745 34.4792 88.9745 34.2577C88.9745 34.0436 89.033 33.8462 89.1479 33.666C89.2639 33.4858 89.4435 33.3411 89.6848 33.2325C89.9271 33.1233 90.2347 33.0691 90.6092 33.0691C90.8567 33.0691 91.1027 33.1009 91.3466 33.1641C91.591 33.2273 91.8025 33.3187 91.9806 33.4372L91.7801 33.9125C91.5963 33.7939 91.4036 33.7078 91.2004 33.654C90.9972 33.6007 90.7998 33.5741 90.6092 33.5741C90.3689 33.5741 90.1715 33.6033 90.017 33.6634C89.8629 33.7224 89.7501 33.8018 89.6785 33.9005C89.608 33.9998 89.5725 34.1109 89.5725 34.2337C89.5725 34.3799 89.6201 34.4969 89.7156 34.5842C89.8107 34.6714 89.935 34.7409 90.088 34.792C90.24 34.8437 90.4076 34.8902 90.5904 34.932C90.7737 34.9732 90.957 35.0197 91.1429 35.0714C91.3273 35.1231 91.4965 35.1905 91.6485 35.2735C91.801 35.3565 91.9237 35.4678 92.0177 35.6062C92.1107 35.7452 92.1577 35.9232 92.1577 36.1409C92.1577 36.3509 92.0992 36.5457 91.9806 36.7264C91.8636 36.9066 91.6809 37.0513 91.4349 37.16C91.1894 37.2691 90.8787 37.3234 90.5052 37.3234Z" fill="#253159"/>
<path d="M94.6914 37.2754V33.1162H95.1912L97.1058 36.2597H96.8374L98.7285 33.1162H99.2283L99.2346 37.2754H98.6491L98.6428 34.0134H98.7828L97.0996 36.7704H96.8191L95.1244 34.0134H95.2763V37.2754H94.6914Z" fill="#253159"/>
<path d="M101.071 34.9107H103.266V35.4157H101.071V34.9107ZM101.126 36.7584H103.614V37.2754H100.516V33.1162H103.529V33.6332H101.126V36.7584Z" fill="#253159"/>
<path d="M105.211 36.7584H106.364C106.717 36.7584 107.024 36.6931 107.282 36.5625C107.54 36.4314 107.74 36.2487 107.882 36.0126C108.025 35.7771 108.095 35.5049 108.095 35.1958C108.095 34.8829 108.025 34.6093 107.882 34.3759C107.74 34.1419 107.54 33.9596 107.282 33.829C107.024 33.6984 106.717 33.6332 106.364 33.6332H105.211V36.7584ZM104.602 37.2754V33.1162H106.401C106.856 33.1162 107.257 33.2034 107.605 33.3773C107.952 33.5518 108.223 33.7957 108.416 34.1085C108.609 34.4213 108.706 34.7837 108.706 35.1958C108.706 35.6078 108.609 35.9703 108.416 36.2831C108.223 36.596 107.952 36.8393 107.605 37.0138C107.257 37.1882 106.856 37.2754 106.401 37.2754H104.602Z" fill="#253159"/>
<path d="M109.637 33.1162H110.247V37.2754H109.637V33.1162Z" fill="#253159"/>
<path d="M113.437 37.3234C113.112 37.3234 112.812 37.2706 112.537 37.1657C112.262 37.0612 112.025 36.9124 111.823 36.7202C111.622 36.528 111.464 36.3034 111.35 36.046C111.237 35.7885 111.18 35.5048 111.18 35.1962C111.18 34.887 111.237 34.604 111.35 34.3465C111.464 34.089 111.623 33.8644 111.827 33.6717C112.029 33.4801 112.269 33.3313 112.543 33.2263C112.818 33.1213 113.117 33.0691 113.443 33.0691C113.772 33.0691 114.076 33.1233 114.354 33.2325C114.632 33.3411 114.87 33.5025 115.065 33.7166L114.669 34.0911C114.505 33.9245 114.323 33.8007 114.119 33.7198C113.916 33.6383 113.699 33.5976 113.468 33.5976C113.227 33.5976 113.005 33.6372 112.799 33.7166C112.594 33.796 112.416 33.9068 112.265 34.0493C112.115 34.1919 111.998 34.3612 111.915 34.557C111.832 34.7534 111.79 34.9664 111.79 35.1962C111.79 35.426 111.832 35.6391 111.915 35.8349C111.998 36.0313 112.115 36.2005 112.265 36.3431C112.416 36.4857 112.594 36.5964 112.799 36.6757C113.005 36.7551 113.227 36.7944 113.468 36.7944C113.699 36.7944 113.916 36.7542 114.119 36.6727C114.323 36.5917 114.505 36.4658 114.669 36.2956L115.065 36.67C114.87 36.8836 114.632 37.0461 114.354 37.1573C114.076 37.268 113.77 37.3234 113.437 37.3234Z" fill="#253159"/>
<path d="M115.934 33.1162H116.544V37.2754H115.934V33.1162Z" fill="#253159"/>
<path d="M117.832 37.2754V33.1162H118.331L121.155 36.5328H120.893V33.1162H121.503V37.2754H121.003L118.179 33.8588H118.442V37.2754H117.832Z" fill="#253159"/>
<path d="M123.335 34.9107H125.531V35.4157H123.335V34.9107ZM123.391 36.7584H125.879V37.2754H122.781V33.1162H125.794V33.6332H123.391V36.7584Z" fill="#253159"/>
<path d="M130.416 37.3234C130.09 37.3234 129.791 37.2706 129.516 37.1657C129.243 37.0612 129.004 36.9124 128.803 36.7202C128.602 36.528 128.444 36.3034 128.331 36.046C128.217 35.7885 128.16 35.5048 128.16 35.1962C128.16 34.887 128.217 34.604 128.331 34.3465C128.444 34.089 128.602 33.8644 128.806 33.6717C129.01 33.4801 129.248 33.3313 129.522 33.2263C129.797 33.1213 130.097 33.0691 130.422 33.0691C130.751 33.0691 131.056 33.1233 131.334 33.2325C131.613 33.3411 131.849 33.5025 132.045 33.7166L131.648 34.0911C131.485 33.9245 131.303 33.8007 131.099 33.7198C130.896 33.6383 130.678 33.5976 130.447 33.5976C130.207 33.5976 129.984 33.6372 129.779 33.7166C129.573 33.796 129.395 33.9068 129.245 34.0493C129.095 34.1919 128.978 34.3612 128.894 34.557C128.811 34.7534 128.77 34.9664 128.77 35.1962C128.77 35.426 128.811 35.6391 128.894 35.8349C128.978 36.0313 129.095 36.2005 129.245 36.3431C129.395 36.4857 129.573 36.5964 129.779 36.6757C129.984 36.7551 130.207 36.7944 130.447 36.7944C130.678 36.7944 130.896 36.7542 131.099 36.6727C131.303 36.5917 131.485 36.4658 131.648 36.2956L132.045 36.67C131.849 36.8836 131.613 37.0461 131.334 37.1573C131.056 37.268 130.749 37.3234 130.416 37.3234Z" fill="#253159"/>
<path d="M134.747 36.7944C134.983 36.7944 135.201 36.7551 135.402 36.6757C135.604 36.5964 135.778 36.4846 135.927 36.3399C136.076 36.1953 136.191 36.026 136.275 35.8318C136.358 35.638 136.399 35.426 136.399 35.1962C136.399 34.9664 136.358 34.7544 136.275 34.5601C136.191 34.3663 136.076 34.1972 135.927 34.0525C135.778 33.9078 135.604 33.796 135.402 33.7166C135.201 33.6372 134.983 33.5981 134.747 33.5981C134.507 33.5981 134.286 33.6372 134.085 33.7166C133.884 33.796 133.708 33.9078 133.557 34.0525C133.407 34.1972 133.291 34.3663 133.207 34.5601C133.124 34.7544 133.082 34.9664 133.082 35.1962C133.082 35.426 133.124 35.638 133.207 35.8318C133.291 36.026 133.407 36.1953 133.557 36.3399C133.708 36.4846 133.884 36.5964 134.085 36.6757C134.286 36.7551 134.507 36.7944 134.747 36.7944ZM134.747 37.3234C134.422 37.3234 134.119 37.2701 133.841 37.163C133.563 37.056 133.322 36.9066 133.118 36.7144C132.915 36.5222 132.757 36.2971 132.643 36.0402C132.53 35.7827 132.473 35.5012 132.473 35.1962C132.473 34.8912 132.53 34.6097 132.643 34.3522C132.757 34.0952 132.915 33.8702 133.118 33.6781C133.322 33.4859 133.562 33.3364 133.838 33.2293C134.115 33.1223 134.418 33.0691 134.747 33.0691C135.072 33.0691 135.372 33.1218 135.647 33.2268C135.921 33.3312 136.161 33.4801 136.367 33.6717C136.571 33.8644 136.73 34.089 136.841 34.3465C136.954 34.604 137.01 34.887 137.01 35.1962C137.01 35.5048 136.954 35.7885 136.841 36.046C136.73 36.3034 136.571 36.528 136.367 36.7202C136.161 36.9124 135.921 37.0612 135.647 37.1657C135.372 37.2706 135.072 37.3234 134.747 37.3234Z" fill="#253159"/>
<path d="M137.949 37.2754V33.1162H138.449L141.272 36.5328H141.01V33.1162H141.62V37.2754H141.12L138.296 33.8588H138.559V37.2754H137.949Z" fill="#253159"/>
<path d="M145.857 36.7176V35.1722H146.442V36.7944L145.857 36.7176ZM144.826 37.3234C144.496 37.3234 144.193 37.2706 143.917 37.1657C143.64 37.0612 143.401 36.9124 143.197 36.7202C142.994 36.528 142.836 36.3034 142.722 36.046C142.608 35.7885 142.551 35.5048 142.551 35.1962C142.551 34.887 142.608 34.604 142.722 34.3465C142.836 34.089 142.995 33.8644 143.2 33.6717C143.406 33.4801 143.646 33.3312 143.923 33.2268C144.199 33.1218 144.505 33.0691 144.838 33.0691C145.175 33.0691 145.484 33.1223 145.765 33.2293C146.046 33.3364 146.283 33.4968 146.479 33.7109L146.1 34.0791C145.926 33.9125 145.736 33.7908 145.53 33.7136C145.325 33.6363 145.102 33.5981 144.862 33.5981C144.618 33.5981 144.392 33.6372 144.182 33.7166C143.973 33.796 143.792 33.9068 143.639 34.0493C143.487 34.1919 143.37 34.3612 143.286 34.557C143.203 34.7534 143.161 34.9664 143.161 35.1962C143.161 35.4218 143.203 35.6328 143.286 35.8292C143.37 36.0251 143.487 36.1953 143.639 36.3399C143.792 36.4846 143.971 36.5964 144.179 36.6757C144.387 36.7551 144.612 36.7944 144.856 36.7944C145.084 36.7944 145.303 36.7599 145.512 36.6904C145.721 36.6215 145.915 36.5055 146.094 36.3431L146.442 36.7944C146.23 36.9688 145.983 37.1009 145.701 37.1896C145.418 37.2789 145.127 37.3234 144.826 37.3234Z" fill="#253159"/>
<path d="M150.46 37.2754L149.374 35.7661H150.027L151.124 37.2754H150.46ZM148.215 35.7959L147.941 35.5049H149.252C149.643 35.5049 149.938 35.4225 150.139 35.2585C150.341 35.094 150.442 34.8632 150.442 34.566C150.442 34.2688 150.341 34.0395 150.139 33.8765C149.938 33.7141 149.643 33.6332 149.252 33.6332H147.941L148.215 33.336V35.7959ZM147.605 37.2754V33.1162H149.27C149.645 33.1162 149.964 33.1736 150.228 33.2885C150.492 33.4034 150.695 33.57 150.838 33.7873C150.98 34.0056 151.051 34.2652 151.051 34.566C151.051 34.8673 150.98 35.1253 150.838 35.3415C150.695 35.5572 150.492 35.7228 150.228 35.8377C149.964 35.952 149.645 36.01 149.27 36.01H147.941L148.215 35.7369V37.2754H147.605Z" fill="#253159"/>
<path d="M152.594 34.9107H154.789V35.4157H152.594V34.9107ZM152.649 36.7584H155.137V37.2754H152.039V33.1162H155.051V33.6332H152.649V36.7584Z" fill="#253159"/>
<path d="M157.372 37.3234C157.047 37.3234 156.736 37.2748 156.44 37.1777C156.143 37.0811 155.909 36.9552 155.738 36.8006L155.963 36.3368C156.127 36.4757 156.333 36.5907 156.585 36.6816C156.838 36.773 157.1 36.8183 157.372 36.8183C157.621 36.8183 157.821 36.7907 157.977 36.7353C158.13 36.68 158.244 36.6031 158.318 36.5065C158.391 36.4094 158.427 36.2993 158.427 36.1765C158.427 36.034 158.379 35.919 158.284 35.8318C158.189 35.7451 158.064 35.6746 157.912 35.6213C157.76 35.5675 157.592 35.5211 157.41 35.4814C157.226 35.4417 157.042 35.3952 156.857 35.3414C156.673 35.2882 156.503 35.2197 156.351 35.1367C156.199 35.0537 156.076 34.9419 155.982 34.8009C155.888 34.6604 155.842 34.4792 155.842 34.2577C155.842 34.0436 155.9 33.8462 156.016 33.666C156.131 33.4858 156.31 33.3411 156.552 33.2325C156.794 33.1233 157.102 33.0691 157.476 33.0691C157.724 33.0691 157.97 33.1009 158.214 33.1641C158.458 33.2273 158.67 33.3187 158.848 33.4372L158.647 33.9125C158.464 33.7939 158.271 33.7078 158.068 33.654C157.864 33.6007 157.668 33.5741 157.476 33.5741C157.236 33.5741 157.039 33.6033 156.885 33.6634C156.73 33.7224 156.617 33.8018 156.546 33.9005C156.475 33.9998 156.44 34.1109 156.44 34.2337C156.44 34.3799 156.487 34.4969 156.582 34.5842C156.678 34.6714 156.803 34.7409 156.955 34.792C157.107 34.8437 157.275 34.8902 157.458 34.932C157.64 34.9732 157.825 35.0197 158.01 35.0714C158.195 35.1231 158.363 35.1905 158.516 35.2735C158.669 35.3565 158.791 35.4678 158.884 35.6062C158.978 35.7452 159.025 35.9232 159.025 36.1409C159.025 36.3509 158.966 36.5457 158.848 36.7264C158.73 36.9066 158.549 37.0513 158.303 37.16C158.057 37.2691 157.746 37.3234 157.372 37.3234Z" fill="#253159"/>
<path d="M161.158 37.3234C160.832 37.3234 160.522 37.2748 160.225 37.1777C159.928 37.0811 159.694 36.9552 159.523 36.8006L159.749 36.3368C159.912 36.4757 160.119 36.5907 160.371 36.6816C160.623 36.773 160.885 36.8183 161.158 36.8183C161.406 36.8183 161.607 36.7907 161.762 36.7353C161.915 36.68 162.03 36.6031 162.102 36.5065C162.177 36.4094 162.213 36.2993 162.213 36.1765C162.213 36.034 162.165 35.919 162.069 35.8318C161.974 35.7451 161.85 35.6746 161.697 35.6213C161.545 35.5675 161.377 35.5211 161.195 35.4814C161.011 35.4417 160.828 35.3952 160.642 35.3414C160.458 35.2882 160.289 35.2197 160.137 35.1367C159.984 35.0537 159.861 34.9419 159.767 34.8009C159.673 34.6604 159.627 34.4792 159.627 34.2577C159.627 34.0436 159.685 33.8462 159.801 33.666C159.917 33.4858 160.095 33.3411 160.338 33.2325C160.579 33.1233 160.888 33.0691 161.261 33.0691C161.51 33.0691 161.756 33.1009 161.999 33.1641C162.243 33.2273 162.455 33.3187 162.633 33.4372L162.432 33.9125C162.25 33.7939 162.056 33.7078 161.853 33.654C161.65 33.6007 161.453 33.5741 161.261 33.5741C161.021 33.5741 160.824 33.6033 160.67 33.6634C160.516 33.7224 160.402 33.8018 160.331 33.9005C160.26 33.9998 160.225 34.1109 160.225 34.2337C160.225 34.3799 160.272 34.4969 160.368 34.5842C160.463 34.6714 160.588 34.7409 160.74 34.792C160.892 34.8437 161.06 34.8902 161.243 34.932C161.426 34.9732 161.61 35.0197 161.795 35.0714C161.98 35.1231 162.148 35.1905 162.301 35.2735C162.454 35.3565 162.577 35.4678 162.67 35.6062C162.764 35.7452 162.811 35.9232 162.811 36.1409C162.811 36.3509 162.752 36.5457 162.633 36.7264C162.515 36.9066 162.334 37.0513 162.088 37.16C161.842 37.2691 161.532 37.3234 161.158 37.3234Z" fill="#253159"/>
<path d="M16.0004 29.7855C13.7113 29.7855 11.6035 29.4184 9.6732 28.6831C7.74241 27.9482 6.07014 26.9084 4.65377 25.5631C3.23845 24.2183 2.12968 22.6447 1.3301 20.8413C0.528435 19.039 0.128906 17.056 0.128906 14.8928C0.128906 12.7296 0.528435 10.747 1.3301 8.9442C2.12968 7.14189 3.24577 5.56789 4.67519 4.22255C6.10566 2.87773 7.78576 1.8379 9.7155 1.10256C11.6458 0.368262 13.7547 0 16.0427 0C18.3594 0 20.496 0.38178 22.456 1.14428C24.4145 1.9073 26.08 3.03696 27.453 4.53427L24.6641 7.15547C23.5209 5.99083 22.2336 5.12393 20.8041 4.55518C19.3742 3.98749 17.8445 3.70284 16.2145 3.70284C14.5266 3.70284 12.9614 3.98016 11.5178 4.53427C10.0727 5.08944 8.82142 5.86558 7.76384 6.86414C6.70574 7.8627 5.88371 9.04821 5.29721 10.4207C4.71176 11.7937 4.41824 13.2847 4.41824 14.8928C4.41824 16.5013 4.71176 17.9919 5.29721 19.3649C5.88371 20.7374 6.70574 21.9229 7.76384 22.9215C8.82142 23.92 10.0727 24.6966 11.5178 25.2507C12.9614 25.8059 14.5266 26.0833 16.2145 26.0833C17.8445 26.0833 19.3742 25.7992 20.8041 25.2304C22.2336 24.6622 23.5209 23.7817 24.6641 22.5888L27.453 25.2095C26.08 26.7068 24.4145 27.8449 22.456 28.6209C20.496 29.3975 18.3443 29.7855 16.0004 29.7855Z" fill="#253159"/>
<path d="M34.1004 22.1714L35.2583 18.8435H52.1592L53.4027 22.1714H34.1004ZM28.3086 29.4517L41.9072 0.332031H46.1532L59.7941 29.4517H55.2901L43.1512 2.66129H44.8668L32.7269 29.4517H28.3086Z" fill="#253159"/>
<path d="M66.0569 22.1714L67.2148 18.8435H84.1151L85.3586 22.1714H66.0569ZM60.2656 29.4517L73.8632 0.332031H78.1102L91.7505 29.4517H87.2466L75.1072 2.66129H76.8228L64.6845 29.4517H60.2656Z" fill="#253159"/>
<path d="M96.207 29.4512V0.332031H99.725L113.194 22.3379H111.307L124.604 0.332031H128.121L128.164 29.4512H124.046L124.003 6.61322H124.99L113.151 25.9154H111.178L99.2524 6.61322H100.326V29.4512H96.207Z" fill="#253159"/>
<path d="M150.602 29.7855C148.313 29.7855 146.205 29.4184 144.274 28.6831C142.344 27.9482 140.672 26.9084 139.256 25.5631C137.84 24.2183 136.732 22.6447 135.932 20.8413C135.131 19.039 134.73 17.056 134.73 14.8928C134.73 12.7296 135.131 10.747 135.932 8.9442C136.732 7.14189 137.847 5.56789 139.277 4.22255C140.707 2.87773 142.387 1.8379 144.318 1.10256C146.247 0.368262 148.357 0 150.644 0C152.961 0 155.098 0.38178 157.058 1.14428C159.016 1.9073 160.682 3.03696 162.055 4.53427L159.266 7.15547C158.123 5.99083 156.835 5.12393 155.406 4.55518C153.976 3.98749 152.447 3.70284 150.817 3.70284C149.128 3.70284 147.563 3.98016 146.119 4.53427C144.674 5.08944 143.424 5.86558 142.365 6.86414C141.307 7.8627 140.485 9.04821 139.899 10.4207C139.313 11.7937 139.02 13.2847 139.02 14.8928C139.02 16.5013 139.313 17.9919 139.899 19.3649C140.485 20.7374 141.307 21.9229 142.365 22.9215C143.424 23.92 144.674 24.6966 146.119 25.2507C147.563 25.8059 149.128 26.0833 150.817 26.0833C152.447 26.0833 153.976 25.7992 155.406 25.2304C156.835 24.6622 158.123 23.7817 159.266 22.5888L162.055 25.2095C160.682 26.7068 159.016 27.8449 157.058 28.6209C155.098 29.3975 152.946 29.7855 150.602 29.7855Z" fill="#253159"/>
<defs>
<linearGradient id="paint0_linear_172_3" x1="83.795" y1="28.377" x2="175.032" y2="-1.7464" gradientUnits="userSpaceOnUse">
<stop stop-color="#C27C1C"/>
<stop offset="0.0117647" stop-color="#C27C1C"/>
<stop offset="0.0196078" stop-color="#C17C1C"/>
<stop offset="0.0313725" stop-color="#C17B1D"/>
<stop offset="0.0392157" stop-color="#C07B1D"/>
<stop offset="0.0509804" stop-color="#BF7B1E"/>
<stop offset="0.0588235" stop-color="#BF7A1E"/>
<stop offset="0.0705882" stop-color="#BE7A1E"/>
<stop offset="0.0784314" stop-color="#BD7A1F"/>
<stop offset="0.0901961" stop-color="#BD791F"/>
<stop offset="0.101961" stop-color="#BC7920"/>
<stop offset="0.109804" stop-color="#BB7920"/>
<stop offset="0.121569" stop-color="#BA7820"/>
<stop offset="0.129412" stop-color="#BA7821"/>
<stop offset="0.141176" stop-color="#B97821"/>
<stop offset="0.14902" stop-color="#B97822"/>
<stop offset="0.160784" stop-color="#B87722"/>
<stop offset="0.168627" stop-color="#B77722"/>
<stop offset="0.180392" stop-color="#B77723"/>
<stop offset="0.188235" stop-color="#B67623"/>
<stop offset="0.2" stop-color="#B67623"/>
<stop offset="0.211765" stop-color="#B57624"/>
<stop offset="0.219608" stop-color="#B47624"/>
<stop offset="0.231373" stop-color="#B47524"/>
<stop offset="0.239216" stop-color="#B37525"/>
<stop offset="0.25098" stop-color="#B37525"/>
<stop offset="0.258824" stop-color="#B27525"/>
<stop offset="0.270588" stop-color="#B27426"/>
<stop offset="0.278431" stop-color="#B17426"/>
<stop offset="0.290196" stop-color="#B17426"/>
<stop offset="0.301961" stop-color="#B17426"/>
<stop offset="0.309804" stop-color="#B17426"/>
<stop offset="0.321569" stop-color="#B17426"/>
<stop offset="0.329412" stop-color="#B17426"/>
<stop offset="0.341176" stop-color="#B17426"/>
<stop offset="0.34902" stop-color="#B17426"/>
<stop offset="0.360784" stop-color="#B17426"/>
<stop offset="0.368627" stop-color="#B17426"/>
<stop offset="0.380392" stop-color="#B17426"/>
<stop offset="0.388235" stop-color="#B17426"/>
<stop offset="0.4" stop-color="#B17426"/>
<stop offset="0.411765" stop-color="#B17426"/>
<stop offset="0.419608" stop-color="#B17426"/>
<stop offset="0.431373" stop-color="#B17426"/>
<stop offset="0.439216" stop-color="#B17426"/>
<stop offset="0.45098" stop-color="#B17426"/>
<stop offset="0.458824" stop-color="#B17426"/>
<stop offset="0.470588" stop-color="#B17426"/>
<stop offset="0.478431" stop-color="#B17426"/>
<stop offset="0.490196" stop-color="#B17426"/>
<stop offset="0.501961" stop-color="#B17426"/>
<stop offset="0.509804" stop-color="#B17426"/>
<stop offset="0.521569" stop-color="#B17426"/>
<stop offset="0.529412" stop-color="#B17426"/>
<stop offset="0.541176" stop-color="#B17426"/>
<stop offset="0.54902" stop-color="#B17426"/>
<stop offset="0.560784" stop-color="#B17426"/>
<stop offset="0.568627" stop-color="#B17426"/>
<stop offset="0.580392" stop-color="#B17426"/>
<stop offset="0.588235" stop-color="#B17426"/>
<stop offset="0.6" stop-color="#B17426"/>
<stop offset="0.611765" stop-color="#B17426"/>
<stop offset="0.619608" stop-color="#B17426"/>
<stop offset="0.631373" stop-color="#B17426"/>
<stop offset="0.639216" stop-color="#B17426"/>
<stop offset="0.65098" stop-color="#B17426"/>
<stop offset="0.658824" stop-color="#B17426"/>
<stop offset="0.670588" stop-color="#B17426"/>
<stop offset="0.678431" stop-color="#B17426"/>
<stop offset="0.690196" stop-color="#B17426"/>
<stop offset="0.701961" stop-color="#B17426"/>
<stop offset="0.709804" stop-color="#B17426"/>
<stop offset="0.721569" stop-color="#B17426"/>
<stop offset="0.729412" stop-color="#B17426"/>
<stop offset="0.741176" stop-color="#B17426"/>
<stop offset="0.74902" stop-color="#B17426"/>
<stop offset="0.760784" stop-color="#B17426"/>
<stop offset="0.768627" stop-color="#B17426"/>
<stop offset="0.780392" stop-color="#B17426"/>
<stop offset="0.788235" stop-color="#B17426"/>
<stop offset="0.8" stop-color="#B17426"/>
<stop offset="0.811765" stop-color="#B17426"/>
<stop offset="0.819608" stop-color="#B17426"/>
<stop offset="0.831373" stop-color="#B17426"/>
<stop offset="0.839216" stop-color="#B17426"/>
<stop offset="0.85098" stop-color="#B17426"/>
<stop offset="0.858824" stop-color="#B17426"/>
<stop offset="0.870588" stop-color="#B17426"/>
<stop offset="0.878431" stop-color="#B17426"/>
<stop offset="0.890196" stop-color="#B17426"/>
<stop offset="0.901961" stop-color="#B17426"/>
<stop offset="0.909804" stop-color="#B17426"/>
<stop offset="0.921569" stop-color="#B17426"/>
<stop offset="0.929412" stop-color="#B17426"/>
<stop offset="0.941176" stop-color="#B17426"/>
<stop offset="0.94902" stop-color="#B17426"/>
<stop offset="0.960784" stop-color="#B17426"/>
<stop offset="0.968627" stop-color="#B17426"/>
<stop offset="0.980392" stop-color="#B17426"/>
<stop offset="0.988235" stop-color="#B17426"/>
<stop offset="1" stop-color="#B17426"/>
</linearGradient>
</defs>
</svg>
